#N canvas 683 268 450 300 10;
#X obj 62 96 unpack s f f;
#X obj 210 143 - 15;
#X obj 210 173 moses 0;
#X obj 210 201 * -1;
#X text 157 96 Sign longitude from 0 - 30 I think;
#X obj 62 53 inlet;
#X obj 102 276 outlet;
#X obj 102 214 expr 30 - $f1;
#X connect 0 1 7 0;
#X connect 1 0 2 0;
#X connect 2 0 3 0;
#X connect 5 0 0 0;
#X connect 7 0 6 0;
