#N canvas 683 268 450 300 10;
#X obj 62 96 unpack s f f;
#X obj 102 120 - 15;
#X obj 102 150 moses 0;
#X obj 102 178 * -1;
#X text 157 96 Sign longitude from 0 - 30 I think;
#X obj 102 214 expr 15 - $f1;
#X obj 62 53 inlet;
#X obj 102 276 outlet;
#X connect 0 1 1 0;
#X connect 1 0 2 0;
#X connect 2 0 3 0;
#X connect 2 1 5 0;
#X connect 3 0 5 0;
#X connect 5 0 7 0;
#X connect 6 0 0 0;
