#N canvas 1 78 450 300 10;
#X obj 145 39 inlet;
#X obj 145 269 outlet;
#X floatatom 134 143 12 0 0 0 - - -, f 12;
#X obj 62 120 unpack s f f;
#X floatatom 277 135 5 0 0 0 - - -, f 5;
#X floatatom 262 204 5 0 0 0 - - -, f 5;
#X obj 72 152 > 180;
#X obj 72 173 + 1;
#X floatatom 72 194 5 0 0 0 - - -, f 5;
#X obj 282 168 cyclone/gate 2 0;
#X obj 356 201 - 12;
#X floatatom 367 226 5 0 0 0 - - -, f 5;
#X obj 343 61 inlet;
#X connect 0 0 3 0;
#X connect 3 2 2 0;
#X connect 3 2 6 0;
#X connect 4 0 9 0;
#X connect 6 0 7 0;
#X connect 7 0 8 0;
#X connect 7 0 9 0;
#X connect 9 0 5 0;
#X connect 9 0 1 0;
#X connect 9 1 10 0;
#X connect 10 0 11 0;
#X connect 10 0 1 0;
#X connect 12 0 9 1;
