#N canvas 1 78 1230 665 10;
#X obj 146 44 inlet;
#X symbolatom 181 82 10 0 0 0 - - -, f 10;
#X obj 729 231 print Undefined Sign;
#X floatatom 745 185 5 0 0 0 - - -, f 5;
#X msg 726 16 432;
#X obj 721 65 ftom;
#X floatatom 721 109 12 0 0 0 - - -, f 12;
#X msg 721 128 set \$1;
#X msg 116 559 68.6823;
#X floatatom 770 69 12 0 0 0 - - -, f 12;
#X msg 148 528 69.6823;
#X msg 180 504 70.6823;
#X msg 191 475 71.6824;
#X msg 236 435 72.6823;
#X msg 291 399 73.6822;
#X msg 342 364 74.6823;
#X msg 375 345 75.6824;
#X msg 407 318 76.6823;
#X msg 431 289 77.6823;
#X msg 450 263 78.6824;
#X msg 721 150 80.6823;
#X msg 514 235 79.6823;
#X obj 726 38 * 2;
#X msg 591 235 80.6823;
#X obj 146 107 sel Aries Taurus Gemini Cancer Virgo Leo Libra Scorpio
Sagittarius Capricorn Aquarius Pisces;
#X obj 382 712 outlet;
#X obj 384 670 +;
#X obj 410 639 r transpose;
#X connect 0 0 1 0;
#X connect 0 0 24 0;
#X connect 3 0 2 0;
#X connect 4 0 22 0;
#X connect 5 0 6 0;
#X connect 6 0 7 0;
#X connect 7 0 20 0;
#X connect 8 0 26 0;
#X connect 10 0 26 0;
#X connect 11 0 26 0;
#X connect 12 0 26 0;
#X connect 13 0 26 0;
#X connect 14 0 26 0;
#X connect 15 0 26 0;
#X connect 16 0 26 0;
#X connect 17 0 26 0;
#X connect 18 0 26 0;
#X connect 19 0 26 0;
#X connect 21 0 26 0;
#X connect 22 0 5 0;
#X connect 22 0 9 0;
#X connect 23 0 26 0;
#X connect 24 0 8 0;
#X connect 24 1 10 0;
#X connect 24 2 11 0;
#X connect 24 3 12 0;
#X connect 24 4 13 0;
#X connect 24 5 14 0;
#X connect 24 6 15 0;
#X connect 24 7 16 0;
#X connect 24 8 17 0;
#X connect 24 9 18 0;
#X connect 24 10 19 0;
#X connect 24 11 21 0;
#X connect 24 12 23 0;
#X connect 26 0 25 0;
#X connect 27 0 26 1;
